<?xml version="1.0" encoding="utf-8"?>
<!-- Generator: Adobe Illustrator 27.7.0, SVG Export Plug-In . SVG Version: 6.00 Build 0)  -->
<svg version="1.1" id="Layer_1" xmlns="http://www.w3.org/2000/svg" xmlns:xlink="http://www.w3.org/1999/xlink" x="0px" y="0px"
	 viewBox="0 0 93.7 94.8" style="enable-background:new 0 0 93.7 94.8;" xml:space="preserve">
<style type="text/css">
	.st0{fill:#FFFFFF;}
</style>
<g>
	<path class="st0" d="M16.6,94.8c-0.3-0.1-0.5-0.1-0.8-0.2v-5.4h2.1v5.6H16.6z"/>
	<path class="st0" d="M58.2,81.8v12.7h-2c0-0.3-0.1-0.6-0.1-0.9C56,89.8,56,85.9,55.9,82c0-2.2,0-2.2,2.2-2.4c0-1,0-1.9,0-2.9
		c0-0.8,0-1.6,0-2.4c-0.1-1,0.1-1.9,0.9-2.4c-0.7-1.7-1.3-3.3-2-5.1c-0.6,0.4-1.3,0.8-2,1.2c-0.5,0.3-0.9,0.7-1.4,0.9
		c-4,1.8-8,3.6-12.1,5.4c-0.7,0.3-1.4,0.4-2-0.2c-0.6-0.6-0.5-1.3-0.2-2c0.9-2.3,0.6-4.4-1.1-6.2c-1.6-1.8-3.7-2.3-5.9-1.6
		c-2.3,0.7-3.7,2.4-4.1,4.8c-0.2,1.5,0.1,2.9,1.1,4.1c0.8,0.9,1.8,1.8,2.8,2.6c1.2,1,1.1,2.4-0.3,3c-5,2.3-10,4.5-14.9,6.7
		c0,0-0.1,0-0.2,0c-0.1-0.2-0.3-0.5-0.4-0.8C11.1,73,5.9,61.4,0.7,49.8c-1.5-3.4-0.7-5.6,2.7-7.1c0.1-0.1,0.2-0.1,0.3-0.2
		c0-0.1,0.1-0.2,0.1-0.2c-0.9-1.8-0.6-3.5,0-5.4c0.7-2.4,1.3-4.9,2-7.3c0.5-1.6,1.1-3.2,1.7-4.6c-0.2-0.9-0.5-1.7-0.5-2.6
		c-0.1-1.7,0-3.4,0-5c-0.2-0.1-0.2-0.1-0.3-0.1c-2.1-0.1-2.1-0.2-2.2-2.3C4.4,10.4,4.3,5.8,4.3,1.2c0-0.4,0-0.7,0-1.2h2.3v14.9h29.4
		V0h2.1c0,0.2,0,0.5,0,0.8c0.1,4.8,0.1,9.6,0.2,14.5c0,1.5-0.2,1.7-1.7,1.8c-0.2,0-0.3,0-0.5,0.1c0,1.7,0,3.3,0,5
		c0,1.1,0,2.2-1.1,2.8c0.5,1,1,2,1.6,3.1c5.1-2.1,10.2-4.3,15.4-6.4c-4.5-3-4.6-7.5-3.3-10.4C50,7.9,53.6,6,57.2,6.6
		c1.5,0.3,2.8,0.9,3.9,1.9c1.1,1,2,2.2,2.3,3.7c0.3,1.4,0.3,2.9,0.4,4.4c4.7-2,9.5-4,14.4-6c1.1,2.7,2.2,5.4,3.4,8
		c3.8,9.1,7.6,18.2,11.4,27.3c1.5,3.5,0.7,5.5-2.8,7.1c-0.1,0.1-0.2,0.1-0.3,0.2c0.1,0.2,0.1,0.4,0.2,0.6c1,2,0.9,4,0.2,6.2
		c-0.8,2.5-1.4,5.2-2.1,7.8c-0.4,1.4-1.1,2.7-1.5,3.9c0.2,0.8,0.5,1.6,0.6,2.4c0.1,1.8,0,3.6,0,5.3c2.4,0.3,2.4,0.3,2.5,2.7
		c0.1,3.8,0.1,7.7,0.2,11.5c0,0.3,0,0.7,0,1.1h-2.3v-6.4v-6.3H58.2z M30.1,77c-5.1-4.1-4.7-8-3.2-10.9c1.7-3.2,5.4-4.9,8.9-4
		c1.7,0.4,3.2,1.3,4.3,2.7c1.6,2,2.1,4.3,1.6,7c0.4-0.2,0.7-0.3,1-0.4c3.2-1.4,6.4-2.9,9.6-4.3c1.4-0.6,1.6-1.2,1-2.6
		c-1.6-3.7-3.3-7.3-4.9-11c-0.3-0.8-0.6-1.5,0-2.3c0.5-0.7,1.3-0.7,2.1-0.6c1,0.1,2,0,3,0c3-0.2,5.4-3.4,4.5-6.8
		c-0.6-2.5-2.7-4.2-5.3-4.3c-2.4-0.1-4.8,1.4-5.7,3.8c-0.3,0.8-0.7,1.4-1.6,1.5c-0.9,0-1.3-0.6-1.6-1.4c-1.8-4-3.5-8.1-5.3-12.1
		c-0.6-1.4-0.8-1.4-2.1-0.8c-5.6,2.5-11.1,5-16.7,7.5c-0.9,0.4-1.7,0.9-2.3,1.7c-0.6,0.8-1.5,1.3-2.3,2c-0.2,0.2-0.5,0.6-0.4,0.9
		c0.3,2,0.6,4,1,5.9c0.5,2.4,0.6,4.7-0.7,6.9c-1,1.7-2.5,2.3-4.3,2.1c-1.6-0.1-2.5-1.2-2.9-2.7c-0.6-2-1.3-4.1-1.9-6.1
		c-0.4-1.3-0.9-2.7-1.3-4c-2.3,0.7-2.8,2-1.9,4c4.9,11,9.9,22,14.8,33c0.1,0.3,0.3,0.5,0.4,0.8C21.9,80.7,26,78.9,30.1,77
		 M55.9,64.9c0.3-0.1,0.4-0.1,0.6-0.2c7-2.9,14-5.9,21.1-8.8c0.5-0.2,1-0.5,1.4-0.8c0.2-0.2,0.4-0.6,0.4-0.9c-0.3-2-0.6-3.9-0.9-5.8
		c-0.4-2.1-0.6-4.3,0.3-6.4c0.7-1.5,1.9-2.4,3.5-2.8c1.9-0.4,3.3,0.5,3.9,2.3c0.9,2.8,1.8,5.7,2.8,8.5c0.1,0.3,0.2,0.5,0.3,0.8
		c2.2-0.6,2.8-1.8,1.9-3.8c-4.4-10.6-8.9-21.2-13.3-31.8c-0.3-0.6-0.5-1.2-0.8-1.9c-4.5,1.9-8.8,3.7-13.2,5.5
		c-1.5,0.6-2.7-0.3-2.5-1.9c0.1-0.9,0.2-1.9,0.1-2.9c-0.1-3.8-3.6-6.3-7.3-5.2c-2.4,0.7-4.1,2.8-4.2,5.2c-0.2,2.5,1.3,4.8,3.5,5.8
		c0.1,0.1,0.3,0.1,0.4,0.2c0.7,0.2,1.2,0.7,1.2,1.5c0,0.8-0.5,1.3-1.2,1.6c-3.9,1.6-7.8,3.2-11.7,4.8c-0.8,0.3-1.6,0.7-2.4,1
		c1.9,4.1,3.7,8.2,5.5,12.3c2.8-3.9,6.4-5.2,10.1-3.7c3.4,1.4,5.5,4.9,5,8.5c-0.3,1.9-1,3.7-2.4,5.1c-2,2-4.5,2.3-7.3,2.2
		C52.5,57.2,54.2,61,55.9,64.9 M75.1,59.4c-0.2,0-0.3,0-0.4,0c-4.9,2-9.9,4.1-14.8,6.2c-0.2,0.1-0.5,0.6-0.5,0.9
		c0.2,1.7,0.9,3.3,2.1,4.6c0.2,0.2,0.6,0.4,0.9,0.4c6.9,0,13.8,0,20.8,0c0.2,0,0.6-0.1,0.7-0.3c0.6-1.1,1.4-2.1,1.7-3.2
		c1-3.5,1.9-7,2.8-10.5c0.1-0.4,0.1-0.8,0-1.2c-1.5-4.7-3-9.3-4.5-14c-0.3-0.8-0.8-1-1.5-0.9c-1.3,0.3-1.8,1.3-2.1,2.4
		c-0.5,1.6,0,3.2,0.3,4.9c0.4,2.5,0.8,4.9,1.2,7.4c-3,0.9-4.4,3.3-5.6,6c-0.7-0.3-1.3-0.6-2-0.9C74.6,60.6,74.8,60.1,75.1,59.4
		 M34.5,28.8c-0.7-1.1-1.3-2.2-2-3.2c-0.1-0.2-0.5-0.2-0.7-0.2c-7,0-14.1,0.1-21.1,0.2c-0.2,0-0.6,0.1-0.7,0.3
		c-0.6,0.9-1.3,1.9-1.6,2.9c-1,3.5-1.9,7-2.8,10.4c-0.1,0.4-0.1,1,0,1.4c1.4,4.6,2.9,9.1,4.4,13.6c0.4,1.1,1,1.5,2,0.9
		c0.5-0.3,1.1-0.8,1.3-1.3c0.8-1.5,0.6-3,0.3-4.6c-0.5-2.9-0.9-5.7-1.4-8.6c1.9-0.7,3.4-1.9,4.4-3.7c0.1-0.2,0.4-0.3,0.7-0.4
		c3-1.4,6-2.7,9-4C29,31.3,31.6,30.1,34.5,28.8 M9,23.2h24.6c0-1.8,0-3.4,0-5c0-0.9-0.3-1-1.1-1c-4.7,0.1-9.4,0.1-14.2,0.1
		c-2.9,0-5.7,0-8.6,0.1c-0.4,0-0.8-0.1-0.8,0.6C9.1,19.6,9,21.4,9,23.2 M60.4,73.7c0,1.9,0,3.5,0,5.2c0,0.6,0.3,0.6,0.8,0.6
		c7.7-0.1,15.4-0.1,23.2-0.2c0.6,0,0.8-0.2,0.7-0.8c0-1.3-0.1-2.6,0-3.9c0-0.9-0.3-1.1-1.1-1.1c-7.5,0-15,0-22.5,0
		C61.1,73.7,60.7,73.7,60.4,73.7"/>
	<path class="st0" d="M25.2,91.9c-0.9-1.7-1.7-3.3-2.5-4.9c0.7-0.4,1.3-0.7,1.9-1c0.8,1.6,1.7,3.2,2.5,4.9
		C26.5,91.2,25.8,91.5,25.2,91.9"/>
	<path class="st0" d="M71,3c0.9,1.7,1.7,3.2,2.5,4.9c-0.6,0.3-1.2,0.7-1.9,1c-0.9-1.7-1.7-3.2-2.5-4.9C69.7,3.7,70.3,3.4,71,3"/>
	<path class="st0" d="M8.7,91.9c-0.7-0.3-1.2-0.6-1.9-1c0.8-1.6,1.7-3.2,2.5-4.9c0.7,0.4,1.3,0.7,1.9,1C10.4,88.7,9.6,90.3,8.7,91.9
		"/>
	<path class="st0" d="M86.8,9c-0.7-0.4-1.3-0.7-1.9-1c0.8-1.6,1.7-3.2,2.5-4.9c0.7,0.3,1.3,0.7,1.9,1C88.5,5.8,87.7,7.3,86.8,9"/>
	<path class="st0" d="M78.1,0.1c0.8,0,1.5,0.1,2.1,0.1v5.4h-2.1V0.1z"/>
</g>
</svg>
