<?xml version="1.0" encoding="utf-8"?>
<!-- Generator: Adobe Illustrator 27.7.0, SVG Export Plug-In . SVG Version: 6.00 Build 0)  -->
<svg version="1.1" id="Layer_1" xmlns="http://www.w3.org/2000/svg" xmlns:xlink="http://www.w3.org/1999/xlink" x="0px" y="0px"
	 viewBox="0 0 102.1 99.4" style="enable-background:new 0 0 102.1 99.4;" xml:space="preserve">
<style type="text/css">
	.st0{fill:#FFFFFF;}
</style>
<g>
	<path class="st0" d="M35.6,74.8h-2.2c-0.2-4.5-0.5-8.9,1.5-13c2-4.1,5.1-7,9.4-8.9c-2.8-2.8-4.3-6-3.8-9.8c0.4-2.7,1.7-5.1,3.9-6.8
		c4.3-3.5,10.5-3.1,14.4,0.9c4.2,4.4,3.9,10.3-0.8,15.7c9.3,4.5,11.9,12.3,10.8,21.9c-0.2,0.1-0.5,0.2-0.7,0.2c-0.4,0-0.8,0-1.2-0.1
		c-0.1-0.3-0.3-0.5-0.3-0.7c-0.1-2.6,0.2-5.3-0.3-7.8c-1.2-5.8-4.8-9.8-10.5-11.8c-0.7-0.3-1.3-0.9-2-1.3c0.5-0.5,0.9-1.2,1.5-1.6
		c3.4-2.3,4.8-5.8,3.7-9.4c-1.1-3.7-4.3-6.1-8.1-6c-3.7,0-6.8,2.4-7.9,6c-1.1,3.5,0.4,7.2,3.7,9.4c0.6,0.4,1,1.2,1.6,1.8
		c-0.6,0.4-1.2,0.9-1.9,1.1c-6.7,2.3-10.7,7.7-10.8,14.8C35.6,71,35.6,72.8,35.6,74.8"/>
	<path class="st0" d="M39.9,11.5c0-2.9,0.1-5.8,0-8.7c0-1.6,0.4-2.3,2.1-2.3c6.1,0.1,12.1,0.1,18.2,0c1.5,0,2.1,0.6,2,2.1
		c-0.1,6-0.1,12,0,18c0,1.7-0.6,2.2-2.2,2.2c-6,0-12,0-18,0c-1.7,0-2.2-0.7-2.2-2.3C40,17.5,39.9,14.5,39.9,11.5 M42.5,20.4h17.2
		V2.8H42.5V20.4z"/>
	<path class="st0" d="M12.8,86c-3.6,0-7.3,0-10.9,0c-2,0-2.4-0.7-1.4-2.4C4.1,77.4,7.7,71.2,11.4,65c1-1.7,1.8-1.7,2.8,0.1
		c3.6,6.1,7.2,12.2,10.7,18.4c1.1,1.9,0.8,2.5-1.4,2.5C19.9,86,16.4,86,12.8,86 M3.3,83.5h19C19,78,15.9,72.8,12.7,67.3
		C9.5,72.9,6.4,78.1,3.3,83.5"/>
	<path class="st0" d="M91,86c-6.2,0-11.1-4.8-11.2-11c-0.1-6,4.9-11.2,11-11.3c6.2-0.1,11.2,4.9,11.2,11.2C102.1,81.2,97.3,86,91,86
		 M91.1,66.1c-4.8-0.1-9,4-9,8.8c0,4.8,3.9,8.7,8.7,8.8c4.9,0.1,9-3.8,9.1-8.7C100,70.3,95.9,66.1,91.1,66.1"/>
	<path class="st0" d="M30.5,15.7c0.3,0.5,0.5,0.8,0.7,1.1c0.1,0.2,0.1,0.4,0.2,0.7C16,26.5,8.5,39.9,8.9,57.9
		c-0.6,0.1-1.3,0.2-2.1,0.4c-0.6-6,0.1-11.8,1.9-17.3C12.5,29.9,21.2,19.7,30.5,15.7"/>
	<path class="st0" d="M70.6,17.5c0.3-0.6,0.5-1,0.8-1.4c0.1-0.1,0.2-0.2,0.4-0.3C86.3,22,97.4,42,95.2,58.2c-0.6-0.1-1.3-0.1-2-0.2
		C93.7,40.1,86.1,26.7,70.6,17.5"/>
	<path class="st0" d="M27.2,92.6c0.5-0.7,0.8-1.2,1.2-1.9c15.1,8.5,30.1,8.4,45.4,0c0.4,0.5,0.8,1,1.3,1.7c-4.1,2.7-8.4,4.5-13,5.5
		C49.8,100.9,38.2,99.3,27.2,92.6"/>
</g>
</svg>
