<?xml version="1.0" encoding="utf-8"?>
<!-- Generator: Adobe Illustrator 26.0.1, SVG Export Plug-In . SVG Version: 6.00 Build 0)  -->
<svg version="1.1" id="Layer_1" xmlns="http://www.w3.org/2000/svg" xmlns:xlink="http://www.w3.org/1999/xlink" x="0px" y="0px"
	 viewBox="0 0 92 44" style="enable-background:new 0 0 92 44;" xml:space="preserve">
<style type="text/css">
	.st0{fill:#E6EBF5;}
	.st1{fill:#14142B;}
	.st2{fill-rule:evenodd;clip-rule:evenodd;fill:#E6EBF5;}
	.st3{fill-rule:evenodd;clip-rule:evenodd;fill:#14142B;}
	.st4{fill-rule:evenodd;clip-rule:evenodd;fill:#6E7191;}
	.st5{fill-rule:evenodd;clip-rule:evenodd;fill:#5F1EBE;}
	.st6{fill:#5F1EBE;}
</style>
<path class="st0" d="M10,20c2.7,0,5.2-1.1,7.1-2.9C19,15.2,20,12.7,20,10s-1.1-5.2-2.9-7.1C15.2,1.1,12.7,0,10,0S4.8,1.1,2.9,2.9
	C1.1,4.8,0,7.3,0,10s1.1,5.2,2.9,7.1C4.8,18.9,7.3,20,10,20z M10,1.2c0.8,0,1.8,0.7,2.5,2.4c0.3,0.6,0.5,1.3,0.7,2H6.8
	c0.2-0.7,0.4-1.4,0.7-2C8.2,2,9.2,1.2,10,1.2z M6.3,3.1C6,3.9,5.7,4.8,5.5,5.6H2.4c1.1-1.8,2.7-3.2,4.7-3.9C6.8,2.1,6.6,2.6,6.3,3.1
	z M5.2,6.9C5.1,7.9,5,9,5,10c0,1.1,0.1,2.1,0.2,3.1H1.8c-0.4-1-0.6-2.1-0.6-3.1c0-1.1,0.2-2.2,0.6-3.1H5.2L5.2,6.9z M5.5,14.4
	c0.2,0.9,0.5,1.8,0.9,2.5c0.2,0.5,0.5,1,0.8,1.4c-2-0.7-3.7-2.1-4.7-3.9H5.5L5.5,14.4z M6.8,14.4h6.5c-0.2,0.7-0.4,1.3-0.7,2
	c-0.8,1.6-1.7,2.4-2.5,2.4s-1.8-0.7-2.5-2.4C7.2,15.7,6.9,15.1,6.8,14.4L6.8,14.4z M13.5,13.1h-7c-0.2-1-0.3-2.1-0.3-3.1
	c0-1.1,0.1-2.2,0.3-3.1h7c0.2,1,0.3,2,0.3,3.1S13.7,12.2,13.5,13.1z M14.5,14.4h3.1c-1.1,1.8-2.7,3.2-4.7,3.9
	c0.3-0.4,0.6-0.9,0.8-1.4C14,16.2,14.3,15.3,14.5,14.4z M18.2,13.1h-3.4c0.2-1,0.2-2,0.2-3.1s-0.1-2.1-0.2-3.1h3.4
	c0.4,1,0.6,2,0.6,3.1S18.5,12.2,18.2,13.1L18.2,13.1z M12.9,1.7c2,0.7,3.7,2.1,4.7,3.9h-3.1c-0.2-0.9-0.5-1.7-0.9-2.5
	C13.4,2.6,13.2,2.2,12.9,1.7L12.9,1.7z"/>
<path class="st1" d="M10.8,42.4c2.7,0,5.2-1.1,7.1-2.9c1.9-1.9,2.9-4.4,2.9-7.1s-1.1-5.2-2.9-7.1c-1.9-1.8-4.4-2.9-7.1-2.9
	s-5.2,1.1-7.1,2.9c-1.8,1.9-2.9,4.4-2.9,7.1s1.1,5.2,2.9,7.1C5.6,41.3,8.1,42.4,10.8,42.4z M10.8,23.6c0.8,0,1.8,0.7,2.5,2.4
	c0.3,0.6,0.5,1.3,0.7,2H7.6c0.2-0.7,0.4-1.4,0.7-2C9,24.4,10,23.6,10.8,23.6z M7.1,25.5c-0.3,0.8-0.6,1.7-0.8,2.5H3.2
	c1.1-1.8,2.7-3.2,4.7-3.9C7.6,24.5,7.4,25,7.1,25.5z M6,29.3c-0.1,1-0.2,2.1-0.2,3.1c0,1.1,0.1,2.1,0.2,3.1H2.6
	c-0.4-1-0.6-2.1-0.6-3.1c0-1.1,0.2-2.2,0.6-3.1L6,29.3L6,29.3z M6.3,36.8c0.2,0.9,0.5,1.8,0.9,2.5c0.2,0.5,0.5,1,0.8,1.4
	c-2-0.7-3.7-2.1-4.7-3.9H6.3L6.3,36.8z M7.6,36.8h6.5c-0.2,0.7-0.4,1.3-0.7,2c-0.8,1.6-1.7,2.4-2.5,2.4s-1.8-0.7-2.5-2.4
	C8,38.1,7.7,37.5,7.6,36.8L7.6,36.8z M14.3,35.5h-7c-0.2-1-0.3-2.1-0.3-3.1c0-1.1,0.1-2.2,0.3-3.1h7c0.2,1,0.3,2,0.3,3.1
	C14.6,33.5,14.5,34.6,14.3,35.5z M15.3,36.8h3.1c-1.1,1.8-2.7,3.2-4.7,3.9c0.3-0.4,0.6-0.9,0.8-1.4C14.8,38.6,15.1,37.7,15.3,36.8z
	 M19,35.5h-3.4c0.2-1,0.2-2,0.2-3.1c0-1.1-0.1-2.1-0.2-3.1H19c0.4,1,0.6,2,0.6,3.1C19.6,33.5,19.3,34.6,19,35.5L19,35.5z M13.7,24.1
	c2,0.7,3.7,2.1,4.7,3.9h-3.1c-0.2-0.9-0.5-1.7-0.9-2.5C14.2,25,14,24.6,13.7,24.1L13.7,24.1z"/>
<path class="st2" d="M31.7,2.2c-4.4,0-8,3.6-8,8s3.6,8,8,8s8-3.6,8-8S36.1,2.2,31.7,2.2z M21.7,10.2c0-5.5,4.5-10,10-10
	s10,4.5,10,10c0,2.4-0.8,4.6-2.3,6.3l3,3c0.4,0.4,0.4,1,0,1.4s-1,0.4-1.4,0l-3-3c-1.7,1.4-3.9,2.3-6.3,2.3
	C26.2,20.2,21.7,15.7,21.7,10.2z"/>
<path class="st3" d="M32.2,24.4c-4.4,0-8,3.6-8,8s3.6,8,8,8s8-3.6,8-8S36.6,24.4,32.2,24.4z M22.2,32.4c0-5.5,4.5-10,10-10
	s10,4.5,10,10c0,2.4-0.8,4.6-2.3,6.3l3,3c0.4,0.4,0.4,1,0,1.4s-1,0.4-1.4,0l-3-3c-1.7,1.4-3.9,2.3-6.3,2.3
	C26.7,42.4,22.2,37.9,22.2,32.4z"/>
<path class="st4" d="M54.7,2.2c-4.4,0-8,3.6-8,8s3.6,8,8,8s8-3.6,8-8S59.1,2.2,54.7,2.2z M44.7,10.2c0-5.5,4.5-10,10-10
	s10,4.5,10,10c0,2.4-0.8,4.6-2.3,6.3l3,3c0.4,0.4,0.4,1,0,1.4s-1,0.4-1.4,0l-3-3c-1.7,1.4-3.9,2.3-6.3,2.3
	C49.2,20.2,44.7,15.7,44.7,10.2z"/>
<path class="st5" d="M73.6,1c0.3-0.2,0.7-0.2,0.9,0l4.2,4.4c0.2,0.2,0.2,0.6,0,0.9l-4.2,4.4c-0.2,0.2-0.6,0.3-0.9,0
	c-0.3-0.2-0.3-0.6,0-0.9l3.2-3.3h-9.2c-0.3,0-0.6-0.3-0.6-0.6c0-0.3,0.3-0.6,0.6-0.6h9.3L73.7,2C73.4,1.7,73.4,1.3,73.6,1z"/>
<g>
	<path class="st6" d="M91,5.2c-0.2,0-0.3,0.1-0.4,0.2s-0.2,0.3-0.2,0.4v3.8c0,0.2-0.1,0.3-0.2,0.4c-0.1,0.1-0.3,0.2-0.4,0.2h-7.5
		c-0.2,0-0.3-0.1-0.4-0.2c-0.1-0.1-0.2-0.3-0.2-0.4V2.1c0-0.2,0.1-0.3,0.2-0.4s0.3-0.2,0.4-0.2H86c0.2,0,0.3-0.1,0.4-0.2
		s0.2-0.3,0.2-0.4s-0.1-0.3-0.2-0.4S86.1,0.3,86,0.3h-3.8c-0.5,0-1,0.2-1.3,0.5c-0.4,0.4-0.5,0.8-0.5,1.3v7.5c0,0.5,0.2,1,0.5,1.3
		c0.4,0.4,0.8,0.5,1.3,0.5h7.5c0.5,0,1-0.2,1.3-0.5c0.4-0.4,0.5-0.8,0.5-1.3V5.8c0-0.2-0.1-0.3-0.2-0.4C91.3,5.3,91.1,5.2,91,5.2z"
		/>
	<path class="st6" d="M88.5,1.5h1l-3.9,3.9c-0.1,0.1-0.1,0.1-0.1,0.2s0,0.2,0,0.2c0,0.1,0,0.2,0,0.2c0,0.1,0.1,0.1,0.1,0.2
		c0.1,0.1,0.1,0.1,0.2,0.1s0.2,0,0.2,0h0.2c0.1,0,0.1-0.1,0.2-0.1l3.9-3.9v1c0,0.2,0.1,0.3,0.2,0.4C90.6,3.9,90.8,4,91,4
		s0.3-0.1,0.4-0.2c0.1-0.1,0.2-0.3,0.2-0.4V0.8c0-0.2-0.1-0.3-0.2-0.4S91.1,0.2,91,0.2h-2.5c-0.2,0-0.3,0.1-0.4,0.2
		s-0.2,0.3-0.2,0.4s0.1,0.3,0.2,0.4C88.1,1.4,88.3,1.5,88.5,1.5L88.5,1.5z"/>
</g>
<path class="st6" d="M59.7,27.6l-4.9-4.9l-1.4,1.4l2.5,2.5l-11.2,0v2l11.2,0l-2.5,2.5l1.4,1.4L59.7,27.6z"/>
</svg>
