<?xml version="1.0" encoding="UTF-8"?>
<svg id="Layer_2" data-name="Layer 2" xmlns="http://www.w3.org/2000/svg" viewBox="0 0 15.75 15.76">
  <defs>
    <style>
      .cls-1 {
        fill: none;
        stroke: #000;
        stroke-linecap: round;
        stroke-linejoin: round;
        stroke-width: .6px;
      }
    </style>
  </defs>
  <g id="Layer_1-2" data-name="Layer 1">
    <g>
      <path class="cls-1" d="m.41,1.1c-.14.24-.12.56-.06.91.61,3.43,2.27,6.51,4.6,8.84,2.33,2.33,5.49,4.08,8.82,4.58.34.05.67.08.9-.06.08-.05.19-.14.22-.27l.55-2.44c.04-.21-.03-.43-.21-.6-.08-.08-1.94-.75-2.81-1.18-.36-.17-.78-.08-.96.22l-.34.59c-.12.2-.31.34-.53.4-.86.22-3.51-2.22-4.08-2.8-.6-.6-3.12-3.31-2.9-4.17.06-.22.2-.42.4-.53.51-.29.37-.22.58-.34.3-.18.4-.6.22-.96-.38-.78-.6-1.52-.85-2.35-.11-.37-.46-.66-.82-.58,0,0-.04,0-2.46.55-.13.03-.22.13-.27.22Z"/>
      <path class="cls-1" d="m7.87,2.35c2.67,0,4.83,2.16,4.83,4.83"/>
      <path class="cls-1" d="m7.87.3c3.8,0,6.88,3.08,6.88,6.88"/>
    </g>
  </g>
</svg>